<svg width="29px" height="30px" viewBox="0 0 29 30" version="1.1" xmlns="http://www.w3.org/2000/svg"><g id="Page-1" stroke="none" stroke-width="1" fill="none" fill-rule="evenodd"><g id="Artboard" transform="translate(-49.000000, -58.000000)"><g id="Group" transform="translate(49.000000, 58.000000)"><path d="M6.23603398,12.6828962 C6.7141545,12.0844073 7,11.325585 7,10.5 C7,9.54634746 6.61859351,8.68177718 6,8.05050863 L6,8 C6,6.88023512 6.61349103,5.90375874 7.52269241,5.38835155 C8.08527204,5.77422233 8.76626942,6 9.5,6 C10.2337306,6 10.914728,5.77422233 11.4773076,5.38835155 C12.386509,5.90375874 13,6.88023512 13,8 L13,12.3368156 C11.8175263,12.8985475 11,14.103802 11,15.5 C11,16.0367986 11.1208455,16.5453723 11.3368156,17 L8,17 L8,16 C8,14.6500811 7.32491959,13.4173572 6.23603398,12.6828962 Z M9.5,5 C8.11928813,5 7,3.88071187 7,2.5 C7,1.11928813 8.11928813,0 9.5,0 C10.8807119,0 12,1.11928813 12,2.5 C12,3.88071187 10.8807119,5 9.5,5 Z" id="Combined-Shape" fill="#C3C6EC"></path><path d="M16.236034,12.6828962 C16.7141545,12.0844073 17,11.325585 17,10.5 C17,9.54634746 16.6185935,8.68177718 16,8.05050863 L16,8 C16,6.88023512 16.613491,5.90375874 17.5226924,5.38835155 C18.085272,5.77422233 18.7662694,6 19.5,6 C20.2337306,6 20.914728,5.77422233 21.4773076,5.38835155 C22.386509,5.90375874 23,6.88023512 23,8 L23,12.3368156 C21.8175263,12.8985475 21,14.103802 21,15.5 C21,16.0367986 21.1208455,16.5453723 21.3368156,17 L18,17 L18,16 C18,14.6500811 17.3249196,13.4173572 16.236034,12.6828962 Z M19.5,5 C18.1192881,5 17,3.88071187 17,2.5 C17,1.11928813 18.1192881,0 19.5,0 C20.8807119,0 22,1.11928813 22,2.5 C22,3.88071187 20.8807119,5 19.5,5 Z" id="Combined-Shape-Copy-6" fill="#C3C6EC" transform="translate(19.500000, 8.500000) scale(-1, 1) translate(-19.500000, -8.500000) "></path><path d="M5.47730759,13.3883516 C6.38650897,13.9037587 7,14.8802351 7,16 L7,24 C7,24.5522847 6.55228475,25 6,25 L1,25 C0.44771525,25 6.76353751e-17,24.5522847 0,24 L0,16 C-1.37131648e-16,14.8802351 0.613491032,13.9037587 1.52269241,13.3883516 C2.08527204,13.7742223 2.76626942,14 3.5,14 C4.23373058,14 4.91472796,13.7742223 5.47730759,13.3883516 Z M3.5,13 C2.11928813,13 1,11.8807119 1,10.5 C1,9.11928813 2.11928813,8 3.5,8 C4.88071187,8 6,9.11928813 6,10.5 C6,11.8807119 4.88071187,13 3.5,13 Z" id="Combined-Shape-Copy-11" fill="#747AD3"></path><path d="M27.4773076,13.3883516 C28.386509,13.9037587 29,14.8802351 29,16 L29,24 C29,24.5522847 28.5522847,25 28,25 L23,25 C22.4477153,25 22,24.5522847 22,24 L22,16 C22,14.8802351 22.613491,13.9037587 23.5226924,13.3883516 C24.085272,13.7742223 24.7662694,14 25.5,14 C26.2337306,14 26.914728,13.7742223 27.4773076,13.3883516 Z M25.5,13 C24.1192881,13 23,11.8807119 23,10.5 C23,9.11928813 24.1192881,8 25.5,8 C26.8807119,8 28,9.11928813 28,10.5 C28,11.8807119 26.8807119,13 25.5,13 Z" id="Combined-Shape-Copy-9" fill="#747AD3"></path><path d="M16.4773076,18.3883516 C17.386509,18.9037587 18,19.8802351 18,21 L18,29 C18,29.5522847 17.5522847,30 17,30 L12,30 C11.4477153,30 11,29.5522847 11,29 L11,21 C11,19.8802351 11.613491,18.9037587 12.5226924,18.3883516 C13.085272,18.7742223 13.7662694,19 14.5,19 C15.2337306,19 15.914728,18.7742223 16.4773076,18.3883516 Z M14.5,18 C13.1192881,18 12,16.8807119 12,15.5 C12,14.1192881 13.1192881,13 14.5,13 C15.8807119,13 17,14.1192881 17,15.5 C17,16.8807119 15.8807119,18 14.5,18 Z" id="Combined-Shape-Copy-10" fill="#3942C1"></path></g></g></g></svg>