<svg width="29px" height="30px" viewBox="0 0 29 30" version="1.1" xmlns="http://www.w3.org/2000/svg"><g id="Page-1" stroke="none" stroke-width="1" fill="none" fill-rule="evenodd"><g id="Artboard" transform="translate(-117.000000, -57.000000)"><g id="Group-2" transform="translate(117.000000, 57.000000)"><g id="Group-7" transform="translate(2.000000, 2.000000)" fill="#E6E7F7" fill-opacity="0.80262115"><g id="Group-5"><g id="Group"><polygon id="Triangle-2" points="5 9 10 18 0 18"></polygon><polygon id="Triangle-2-Copy" points="15 9 20 18 10 18"></polygon><polygon id="Triangle-2-Copy-4" points="20 0 25 9 15 9"></polygon><polygon id="Triangle-2-Copy-2" points="10 18 5 9 15 9"></polygon><polygon id="Triangle-2-Copy-5" points="5 27 0 18 10 18"></polygon><polygon id="Triangle-2-Copy-3" points="20 18 15 9 25 9"></polygon></g></g></g><g id="Group-11-Copy-2"><g id="Group-7"><g id="Group-5"><g id="Group"><path d="M2.84975723,19.5 L11.1502428,19.5 L7,12.029563 L2.84975723,19.5 Z M12.8497572,20.5 L1.15024277,20.5 L7,9.97043699 L12.8497572,20.5 Z" id="Triangle-2" fill="#9095DC" fill-rule="nonzero"></path><path d="M12.8497572,19.5 L21.1502428,19.5 L17,12.029563 L12.8497572,19.5 Z M22.8497572,20.5 L11.1502428,20.5 L17,9.97043699 L22.8497572,20.5 Z" id="Triangle-2-Copy" fill="#9095DC" fill-rule="nonzero"></path><path d="M22,3.02956301 L17.8497572,10.5 L26.1502428,10.5 L22,3.02956301 Z M27.8497572,11.5 L16.1502428,11.5 L22,0.970436986 L27.8497572,11.5 Z" id="Triangle-2-Copy-4" fill="#9095DC" fill-rule="nonzero"></path><path d="M16.1502428,11.5 L7.84975723,11.5 L12,18.970437 L16.1502428,11.5 Z M6.15024277,10.5 L17.8497572,10.5 L12,21.029563 L6.15024277,10.5 Z" id="Triangle-2-Copy-2" fill="#9095DC" fill-rule="nonzero"></path><path d="M11.1502428,20.5 L2.84975723,20.5 L7,27.970437 L11.1502428,20.5 Z M1.15024277,19.5 L12.8497572,19.5 L7,30.029563 L1.15024277,19.5 Z" id="Triangle-2-Copy-5" fill="#9095DC" fill-rule="nonzero"></path><path d="M26.1502428,11.5 L17.8497572,11.5 L22,18.970437 L26.1502428,11.5 Z M16.1502428,10.5 L27.8497572,10.5 L22,21.029563 L16.1502428,10.5 Z" id="Triangle-2-Copy-3" fill="#9095DC" fill-rule="nonzero"></path><circle id="Oval-Copy-4" fill="#3942C1" cx="7" cy="11" r="2"></circle><circle id="Oval-Copy-5" fill="#3942C1" cx="2" cy="20" r="2"></circle><circle id="Oval-Copy-6" fill="#3942C1" cx="7" cy="28" r="2"></circle><circle id="Oval-Copy-7" fill="#3942C1" cx="12" cy="20" r="2"></circle><circle id="Oval-Copy-9" fill="#3942C1" cx="17" cy="11" r="2"></circle><circle id="Oval-Copy-8" fill="#3942C1" cx="22" cy="20" r="2"></circle><circle id="Oval-Copy-10" fill="#3942C1" cx="27" cy="11" r="2"></circle><circle id="Oval-Copy-11" fill="#3942C1" cx="22" cy="2" r="2"></circle></g></g></g></g></g></g></g></svg>