<svg width="122px" height="21px" viewBox="0 0 122 21" version="1.1" xmlns="http://www.w3.org/2000/svg"><defs><polygon id="path-1" points="0 0.0111391304 16.1339957 0.0111391304 16.1339957 18.8773565 0 18.8773565"></polygon><polygon id="path-3" points="0.473179259 0.600234783 19.0126607 0.600234783 19.0126607 20.0869565 0.473179259 20.0869565"></polygon></defs><g id="Consortium" stroke="none" stroke-width="1" fill="none" fill-rule="evenodd" transform="translate(-103.000000, -37.000000)"><g id="Page-1" transform="translate(103.000000, 37.000000)"><g id="Group-3" transform="translate(0.000000, 1.225943)"><mask id="mask-2" fill="white"><use xlink:href="#path-1"></use></mask><g id="Clip-2"></g><path d="M7.65690074,9.14796522 L15.4992415,0.361747826 C15.6329896,0.226617391 15.5263526,0.0111391304 15.3392859,0.0111391304 L10.9635526,0.0111391304 C10.6707526,0.0111391304 10.3770489,0.146269565 10.1646785,0.388226087 L4.29512296,7.18035652 L4.29512296,0.495965217 C4.29512296,0.226617391 4.08094519,0.0111391304 3.8152563,0.0111391304 L0.48058963,0.0111391304 C0.213997037,0.0111391304 -0.000180740741,0.226617391 -0.000180740741,0.495965217 L-0.000180740741,18.3925304 C-0.000180740741,18.6609652 0.213997037,18.8773565 0.48058963,18.8773565 L3.8152563,18.8773565 C4.08094519,18.8773565 4.29512296,18.6609652 4.29512296,18.3925304 L4.29512296,11.1155739 L10.7511822,18.5276609 C10.9635526,18.7431391 11.25816,18.8773565 11.5518637,18.8773565 L15.9257896,18.8773565 C16.1128563,18.8773565 16.1932859,18.6609652 16.0857452,18.5276609 L7.65690074,9.14796522 Z" id="Fill-1" fill="#231F20" mask="url(#mask-2)"></path></g><path d="M25.4627556,12.907513 L26.8761481,9.40416522 L28.264237,12.907513 L25.4627556,12.907513 Z M27.4906667,1.45338261 C27.3831259,1.18312174 27.1165333,1.02151304 26.8499407,1.02151304 C26.5824444,1.02151304 26.3158519,1.18312174 26.2092148,1.45338261 L18.0198519,19.6722522 C17.9394222,19.8612522 18.1002815,20.1032087 18.3126519,20.1032087 L22.1271852,20.1032087 C22.4217926,20.1032087 22.6874815,19.9151217 22.7941185,19.6448609 L24.1288889,16.2757304 L29.6234074,16.2757304 L30.9581778,19.6448609 C31.0648148,19.9151217 31.3305037,20.1032087 31.6251111,20.1032087 L35.4396444,20.1032087 C35.6529185,20.1032087 35.8128741,19.8612522 35.706237,19.6722522 L27.4906667,1.45338261 Z" id="Fill-4" fill="#231F20"></path><path d="M49.7819644,16.0875522 L43.5129719,16.0875522 L43.5129719,1.72172609 C43.5129719,1.4532913 43.2996978,1.2369 43.0331052,1.2369 L39.6975348,1.2369 C39.4318459,1.2369 39.2176681,1.4532913 39.2176681,1.72172609 L39.2176681,19.6182913 C39.2176681,19.8876391 39.4318459,20.1031174 39.6975348,20.1031174 L49.7819644,20.1031174 C50.048557,20.1031174 50.2618311,19.8876391 50.2618311,19.6182913 L50.2618311,16.5723783 C50.2618311,16.3039435 50.048557,16.0875522 49.7819644,16.0875522" id="Fill-6" fill="#231F20"></path><path d="M67.1610904,1.23671739 L55.2096089,1.23671739 C54.94392,1.23671739 54.7297422,1.4531087 54.7297422,1.72154348 L54.7297422,19.6181087 C54.7297422,19.8874565 54.94392,20.1038478 55.2096089,20.1038478 L67.1610904,20.1038478 C67.4285867,20.1038478 67.640957,19.8874565 67.640957,19.6181087 L67.640957,16.5721957 C67.640957,16.3037609 67.4285867,16.0873696 67.1610904,16.0873696 L58.9979348,16.0873696 L58.9979348,12.800413 L65.2669274,12.800413 C65.5344237,12.800413 65.7486015,12.5840217 65.7486015,12.3137609 L65.7486015,9.26876087 C65.7486015,8.9985 65.5344237,8.78393478 65.2669274,8.78393478 L58.9979348,8.78393478 L58.9979348,5.25228261 L67.1610904,5.25228261 C67.4285867,5.25228261 67.640957,5.03771739 67.640957,4.76745652 L67.640957,1.72154348 C67.640957,1.4531087 67.4285867,1.23671739 67.1610904,1.23671739" id="Fill-8" fill="#231F20"></path><path d="M76.8012593,1.23671739 L73.4928,1.23671739 C73.2271111,1.23671739 73.0129333,1.4531087 73.0129333,1.72154348 L73.0129333,19.6181087 C73.0129333,19.8874565 73.2271111,20.1038478 73.4928,20.1038478 L76.8012593,20.1038478 C77.0678519,20.1038478 77.2811259,19.8874565 77.2811259,19.6181087 L77.2811259,1.72154348 C77.2811259,1.4531087 77.0678519,1.23671739 76.8012593,1.23671739" id="Fill-10" fill="#231F20"></path><path d="M90.7244415,16.0875522 L88.2437748,16.0875522 L88.2437748,5.22598696 L90.7244415,5.22598696 C95.0459526,5.22598696 95.6595674,9.24155217 95.6595674,10.643987 C95.6595674,12.0445957 95.0459526,16.0875522 90.7244415,16.0875522 M90.7244415,1.2369 L84.4816563,1.2369 C84.2159674,1.2369 84.0017896,1.4532913 84.0017896,1.72172609 L84.0017896,19.6182913 C84.0017896,19.8876391 84.2159674,20.1031174 84.4816563,20.1031174 L90.7244415,20.1031174 C97.8212267,20.1031174 99.9810785,14.6860304 99.9810785,10.643987 C99.9810785,6.70785652 97.8212267,1.2369 90.7244415,1.2369" id="Fill-12" fill="#231F20"></path><g id="Group-16" transform="translate(102.118519, 0.312900)"><mask id="mask-4" fill="white"><use xlink:href="#path-3"></use></mask><g id="Clip-15"></g><path d="M9.75512,16.0443652 C5.43360889,16.0443652 4.81999407,11.7320609 4.81999407,10.3314522 C4.81999407,8.92901739 5.43360889,4.66966957 9.75512,4.66966957 C14.0504237,4.66966957 14.6640385,8.92901739 14.6640385,10.3314522 C14.6640385,11.7320609 14.0504237,16.0443652 9.75512,16.0443652 M9.75512,0.600234783 C2.66014222,0.600234783 0.473179259,6.39532174 0.473179259,10.3314522 C0.473179259,14.3734957 2.66014222,20.0873217 9.75512,20.0873217 C16.8256978,20.0873217 19.0126607,14.3734957 19.0126607,10.3314522 C19.0126607,6.39532174 16.8256978,0.600234783 9.75512,0.600234783" id="Fill-14" fill="#231F20" mask="url(#mask-4)"></path></g></g></g></svg>