<svg width="26px" height="26px" viewBox="0 0 26 26" version="1.1" xmlns="http://www.w3.org/2000/svg"><g id="Page-1" stroke="none" stroke-width="1" fill="none" fill-rule="evenodd"><g id="Cons-Dropdown" transform="translate(-834.000000, -277.000000)"><g id="Group-7-Copy-10" transform="translate(835.000000, 278.000000)"><g id="Group-6" fill="#E6E7F7" opacity="0.5" stroke="#3942C1" stroke-width="1.2"><circle id="Oval" cx="12" cy="12" r="12"></circle></g><path d="M17.761109,15.6480242 C17.6327106,15.2663785 17.454828,14.8969518 17.2329305,14.549883 C16.7998138,13.872384 16.190898,13.2759977 15.4715543,12.8251982 C15.1230815,12.6062979 14.7462205,12.4201547 14.3513888,12.2711881 C14.1552752,12.1973547 13.9518692,12.1318406 13.7474215,12.0769856 C13.7109594,12.0671065 13.6734556,12.0585272 13.6351705,12.049688 C13.573706,12.0356493 13.5098974,12.0210906 13.4674452,12.0018523 C13.4458284,11.971955 13.4380151,11.9155401 13.4414009,11.883303 C13.4950522,11.8552255 13.5312537,11.8359873 13.5661531,11.8131093 C13.6570477,11.7535747 13.7463797,11.6927402 13.8315446,11.6256662 C14.0052601,11.4891785 14.1669952,11.3326726 14.3118015,11.161608 C14.6061021,10.8140192 14.8298227,10.4115755 14.9767126,9.96545561 C15.1035483,9.58043026 15.1676173,9.17590667 15.1676173,8.76306382 C15.1676173,6.82597816 13.7466401,5.25 12.0001092,5.25 C10.2538387,5.25 8.8328615,6.82623814 8.8328615,8.76306382 C8.8328615,9.7200377 9.19149155,10.6468543 9.81629438,11.305635 C9.97568551,11.4735799 10.1514846,11.6238464 10.3387431,11.7520148 C10.3869251,11.7850318 10.4382323,11.8128493 10.4895396,11.8401469 C10.5158444,11.8539256 10.54267,11.8684843 10.5614219,11.8801833 C10.5614219,11.8918822 10.5598592,11.9108605 10.5546504,11.939198 C10.5470975,11.9797543 10.5262621,12.0073118 10.5390238,12.005492 C10.4606304,12.0408488 10.3554114,12.0658066 10.2444627,12.0925842 C10.1546099,12.1139022 10.0652779,12.1354803 9.98063393,12.1625179 C9.75326717,12.2360913 9.53371369,12.3182439 9.32848459,12.4071559 C8.89302384,12.5961588 8.49063936,12.827538 8.13226975,13.094534 C7.44704414,13.605128 6.89021695,14.2550695 6.52273183,14.9749448 C6.22478501,15.5575523 6.04429799,16.205154 6.000804,16.8472962 C5.99403248,16.9515469 6.03023407,17.0539776 6.1018559,17.1304108 C6.17321729,17.2068439 6.27348785,17.25 6.37792551,17.25 L17.6215115,17.25 C17.7345438,17.25 17.8418463,17.1993046 17.9137286,17.1124724 C17.9960286,17.0123814 18.0554096,16.9403679 17.9184166,16.2415508 C17.8790897,16.0416288 17.8259593,15.8417067 17.761109,15.6480242 Z" id="Shape-Copy-4" fill="#3942C1" fill-rule="nonzero"></path></g></g></g></svg>